<?xml version="1.0" standalone="no"?>
<!DOCTYPE svg PUBLIC "-//W3C//DTD SVG 20010904//EN"
 "http://www.w3.org/TR/2001/REC-SVG-20010904/DTD/svg10.dtd">
<svg version="1.0" xmlns="http://www.w3.org/2000/svg"
 width="600.000000pt" height="600.000000pt" viewBox="0 0 600.000000 600.000000"
 preserveAspectRatio="xMidYMid meet">
<metadata>
Created by potrace 1.14, written by Peter Selinger 2001-2017
</metadata>
<g transform="translate(0.000000,600.000000) scale(0.100000,-0.100000)"
fill="#000000" stroke="none">
<path d="M0 3000 l0 -3000 3000 0 3000 0 0 3000 0 3000 -3000 0 -3000 0 0
-3000z m3508 1704 c148 -42 158 -47 167 -74 4 -13 -37 -170 -109 -418 -63
-218 -280 -964 -481 -1657 -201 -693 -369 -1270 -375 -1282 -16 -37 -48 -37
-181 2 -168 49 -178 53 -185 82 -6 23 113 440 792 2772 95 327 179 598 186
602 23 15 56 10 186 -27z m-1436 -786 c9 -7 59 -59 112 -116 65 -70 96 -110
96 -126 0 -19 -75 -90 -347 -331 -192 -170 -359 -318 -372 -330 l-23 -23 358
-317 c198 -175 365 -325 372 -333 24 -30 11 -54 -90 -163 -105 -115 -135 -137
-161 -123 -9 5 -232 212 -496 459 -400 374 -481 454 -481 476 0 22 82 104 485
483 345 324 493 456 509 456 12 0 29 -6 38 -12z m2413 -438 c268 -250 484
-461 490 -475 9 -25 3 -33 -90 -124 -277 -268 -874 -819 -895 -826 -21 -7 -37
6 -137 110 -86 89 -113 124 -113 144 0 22 59 79 371 355 300 266 368 331 357
341 -7 7 -174 155 -370 329 -288 254 -358 321 -358 341 0 37 205 255 239 255
20 0 131 -99 506 -450z"/>
</g>
</svg>
